<svg width="128" height="128" viewBox="0 0 128 128" fill="none" xmlns="http://www.w3.org/2000/svg">
<rect width="128" height="128" rx="24" fill="white"/>
<rect x="35" y="44" width="58" height="40" rx="6" fill="white" stroke="#3C3C3C" stroke-width="4"/>
<path d="M63.6058 78.9178C63.0123 78.9178 62.5109 78.7085 62.1016 78.2899C61.6923 77.8714 61.4876 77.3481 61.4876 76.7203V74.3972L62.4086 75.2448C61.0374 75.182 59.8504 75.0041 58.8476 74.7111C57.8447 74.4181 57.0261 74.1251 56.3917 73.8321C55.8596 73.5809 55.4809 73.2252 55.2558 72.7647C55.0512 72.3043 54.9693 71.8334 55.0102 71.352C55.0716 70.8707 55.2456 70.4312 55.5321 70.0335C55.8186 69.6359 56.187 69.3742 56.6373 69.2487C57.108 69.1022 57.6503 69.165 58.2643 69.437C58.6736 69.6673 59.2876 69.9079 60.1062 70.1591C60.9453 70.3893 61.9788 70.5044 63.2068 70.5044C64.0663 70.5044 64.7417 70.4207 65.2329 70.2533C65.7445 70.0858 66.1027 69.8661 66.3073 69.594C66.5324 69.301 66.645 68.9871 66.645 68.6522C66.645 68.3383 66.5631 68.0767 66.3994 67.8674C66.2562 67.6372 66.0106 67.4383 65.6626 67.2709C65.3147 67.0825 64.8338 66.9151 64.2198 66.7686L60.7509 66.0152C58.8476 65.5757 57.4252 64.8431 56.4838 63.8176C55.5628 62.7712 55.1023 61.4213 55.1023 59.7679C55.1023 58.5122 55.3991 57.3925 55.9926 56.4088C56.6066 55.4042 57.4559 54.588 58.5406 53.9601C59.6457 53.3323 60.9351 52.9346 62.4086 52.7672L61.4876 53.3009V51.1975C61.4876 50.5697 61.6923 50.0464 62.1016 49.6279C62.5109 49.2093 63.0123 49 63.6058 49C64.2198 49 64.7315 49.2093 65.1408 49.6279C65.5501 50.0464 65.7547 50.5697 65.7547 51.1975V53.3009L64.8338 52.7044C65.6115 52.7253 66.4506 52.8614 67.3511 53.1125C68.2516 53.3427 69.0395 53.6671 69.7149 54.0857C70.1856 54.3369 70.513 54.6822 70.6972 55.1217C70.9019 55.5612 70.9735 56.0112 70.9121 56.4716C70.8712 56.9111 70.7074 57.3088 70.4209 57.6645C70.1549 58.0203 69.7865 58.261 69.3158 58.3866C68.8655 58.4912 68.3232 58.4075 67.6888 58.1354C67.218 57.9262 66.6859 57.7587 66.0924 57.6332C65.5194 57.4867 64.7826 57.4134 63.8821 57.4134C62.7974 57.4134 61.9583 57.6122 61.3648 58.0099C60.7918 58.4075 60.5053 58.9203 60.5053 59.5481C60.5053 59.9667 60.669 60.3225 60.9965 60.6155C61.3444 60.8876 61.9686 61.1283 62.8691 61.3376L66.3687 62.1224C68.313 62.5619 69.7456 63.2944 70.6665 64.3199C71.6079 65.3245 72.0787 66.6326 72.0787 68.2441C72.0787 69.4998 71.7819 70.609 71.1884 71.5718C70.5949 72.5345 69.766 73.3193 68.7018 73.9263C67.6581 74.5332 66.4403 74.9309 65.0487 75.1192L65.7547 74.3658V76.7203C65.7547 77.3481 65.5501 77.8714 65.1408 78.2899C64.7519 78.7085 64.2403 78.9178 63.6058 78.9178Z" fill="#01C246"/>
</svg>
