<svg width="128" height="128" viewBox="0 0 128 128" fill="none" xmlns="http://www.w3.org/2000/svg">
<rect width="128" height="128" rx="24" fill="white"/>
<rect x="32" y="32" width="64" height="64" rx="6" fill="white" stroke="#3C3C3C" stroke-width="4"/>
<line x1="32" y1="65" x2="96" y2="65" stroke="#3C3C3C" stroke-width="4"/>
<line x1="65" y1="32" x2="65" y2="96" stroke="#3C3C3C" stroke-width="4"/>
<path d="M48.5055 56.104C47.6468 56.104 47.2175 55.6653 47.2175 54.788V50.196H42.7095C41.8695 50.196 41.4495 49.7853 41.4495 48.964C41.4495 48.1427 41.8695 47.732 42.7095 47.732H47.2175V43.28C47.2175 42.4213 47.6468 41.992 48.5055 41.992C49.3641 41.992 49.7935 42.4213 49.7935 43.28V47.732H54.3015C55.1415 47.732 55.5615 48.1427 55.5615 48.964C55.5615 49.7853 55.1415 50.196 54.3015 50.196H49.7935V54.788C49.7935 55.6653 49.3641 56.104 48.5055 56.104Z" fill="#3C3C3C"/>
<path d="M77.0087 51.806C76.5247 51.806 76.1177 51.652 75.7877 51.344C75.4797 51.014 75.3257 50.618 75.3257 50.156C75.3257 49.672 75.4797 49.276 75.7877 48.968C76.1177 48.66 76.5247 48.506 77.0087 48.506H84.0377C84.4997 48.506 84.8847 48.66 85.1927 48.968C85.5227 49.276 85.6877 49.672 85.6877 50.156C85.6877 50.618 85.5227 51.014 85.1927 51.344C84.8847 51.652 84.4997 51.806 84.0377 51.806H77.0087Z" fill="#3C3C3C"/>
<path d="M43.9772 88.13C43.5959 88.13 43.2752 88.026 43.0152 87.818C42.7726 87.5927 42.6426 87.3067 42.6252 86.96C42.6252 86.6133 42.7726 86.2493 43.0672 85.868L46.6552 81.448L43.3272 77.34C43.0152 76.9587 42.8679 76.5947 42.8852 76.248C42.9026 75.9013 43.0326 75.624 43.2752 75.416C43.5352 75.1907 43.8559 75.078 44.2372 75.078C44.6359 75.078 44.9652 75.1473 45.2252 75.286C45.5026 75.4247 45.7539 75.6413 45.9792 75.936L48.5272 79.212L51.1012 75.936C51.3439 75.6413 51.5952 75.4247 51.8552 75.286C52.1152 75.1473 52.4359 75.078 52.8172 75.078C53.2159 75.078 53.5366 75.1907 53.7792 75.416C54.0219 75.6413 54.1432 75.9273 54.1432 76.274C54.1606 76.6207 54.0132 76.9847 53.7012 77.366L50.3732 81.448L53.9872 85.868C54.2992 86.232 54.4466 86.5873 54.4292 86.934C54.4119 87.2807 54.2732 87.5667 54.0132 87.792C53.7706 88.0173 53.4499 88.13 53.0512 88.13C52.3579 88.13 51.7859 87.844 51.3352 87.272L48.5012 83.71L45.6932 87.272C45.4679 87.5493 45.2252 87.766 44.9652 87.922C44.7052 88.0607 44.3759 88.13 43.9772 88.13Z" fill="#3C3C3C"/>
<path d="M75.6231 79.082C74.8431 79.082 74.4531 78.7007 74.4531 77.938C74.4531 77.1753 74.8431 76.794 75.6231 76.794H86.3871C87.1671 76.794 87.5571 77.1753 87.5571 77.938C87.5571 78.7007 87.1671 79.082 86.3871 79.082H75.6231ZM75.6231 84.256C74.8431 84.256 74.4531 83.8747 74.4531 83.112C74.4531 82.3667 74.8431 81.994 75.6231 81.994H86.3871C87.1671 81.994 87.5571 82.3667 87.5571 83.112C87.5571 83.8747 87.1671 84.256 86.3871 84.256H75.6231Z" fill="#01C246"/>
</svg>
