<svg width="128" height="128" viewBox="0 0 128 128" fill="none" xmlns="http://www.w3.org/2000/svg">
<rect width="128" height="128" rx="24" fill="white"/>
<path d="M94.9214 54.9178C94.9214 67.9003 84.4076 78.4246 71.4382 78.4246C58.4688 78.4246 47.9551 67.9003 47.9551 54.9178C47.9551 41.9353 58.4688 31.4109 71.4382 31.4109C84.4076 31.4109 94.9214 41.9353 94.9214 54.9178Z" fill="#F7F7F7" stroke="#3C3C3C" stroke-width="4"/>
<ellipse cx="56.4944" cy="74.1507" rx="23.4831" ry="23.5068" fill="white" stroke="#3C3C3C" stroke-width="4"/>
<path d="M56.5609 89.1096C55.9674 89.1096 55.466 88.9003 55.0567 88.4817C54.6474 88.0631 54.4427 87.5399 54.4427 86.912V84.5889L55.3637 85.4366C53.9925 85.3738 52.8055 85.1959 51.8026 84.9029C50.7998 84.6099 49.9812 84.3169 49.3467 84.0239C48.8146 83.7727 48.436 83.4169 48.2109 82.9565C48.0062 82.4961 47.9244 82.0252 47.9653 81.5438C48.0267 81.0624 48.2007 80.6229 48.4872 80.2253C48.7737 79.8276 49.1421 79.566 49.5923 79.4404C50.063 79.2939 50.6054 79.3567 51.2194 79.6288C51.6287 79.859 52.2426 80.0997 53.0613 80.3509C53.9004 80.5811 54.9339 80.6962 56.1618 80.6962C57.0214 80.6962 57.6968 80.6125 58.1879 80.445C58.6996 80.2776 59.0577 80.0578 59.2624 79.7858C59.4875 79.4928 59.6001 79.1788 59.6001 78.844C59.6001 78.53 59.5182 78.2684 59.3545 78.0591C59.2112 77.8289 58.9656 77.6301 58.6177 77.4627C58.2698 77.2743 57.7889 77.1069 57.1749 76.9604L53.7059 76.2069C51.8026 75.7674 50.3803 75.0349 49.4388 74.0094C48.5179 72.963 48.0574 71.6131 48.0574 69.9597C48.0574 68.7039 48.3542 67.5842 48.9477 66.6006C49.5616 65.596 50.411 64.7798 51.4957 64.1519C52.6008 63.524 53.8901 63.1264 55.3637 62.959L54.4427 63.4927V61.3893C54.4427 60.7614 54.6474 60.2382 55.0567 59.8196C55.466 59.4011 55.9674 59.1918 56.5609 59.1918C57.1749 59.1918 57.6865 59.4011 58.0958 59.8196C58.5052 60.2382 58.7098 60.7614 58.7098 61.3893V63.4927L57.7889 62.8962C58.5666 62.9171 59.4057 63.0531 60.3061 63.3043C61.2066 63.5345 61.9946 63.8589 62.6699 64.2775C63.1406 64.5286 63.4681 64.874 63.6523 65.3135C63.857 65.753 63.9286 66.2029 63.8672 66.6634C63.8263 67.1029 63.6625 67.5005 63.376 67.8563C63.11 68.2121 62.7416 68.4528 62.2709 68.5784C61.8206 68.683 61.2783 68.5993 60.6438 68.3272C60.1731 68.1179 59.641 67.9505 59.0475 67.8249C58.4745 67.6784 57.7377 67.6052 56.8372 67.6052C55.7525 67.6052 54.9134 67.804 54.3199 68.2016C53.7469 68.5993 53.4604 69.1121 53.4604 69.7399C53.4604 70.1585 53.6241 70.5143 53.9515 70.8073C54.2995 71.0794 54.9237 71.32 55.8242 71.5293L59.3238 72.3142C61.268 72.7537 62.7006 73.4862 63.6216 74.5117C64.563 75.5163 65.0337 76.8243 65.0337 78.4359C65.0337 79.6916 64.737 80.8008 64.1435 81.7635C63.55 82.7263 62.7211 83.5111 61.6569 84.118C60.6131 84.725 59.3954 85.1226 58.0038 85.311L58.7098 84.5576V86.912C58.7098 87.5399 58.5052 88.0631 58.0958 88.4817C57.707 88.9003 57.1954 89.1096 56.5609 89.1096Z" fill="#3C3C3C"/>
<path d="M39.7616 28.5519C40.5423 27.7704 40.5423 26.5035 39.7616 25.722C38.981 24.9406 37.7153 24.9406 36.9346 25.722L39.7616 28.5519ZM17.1357 46.3698C17.1357 47.475 18.0307 48.3708 19.1347 48.3708H37.1256C38.2296 48.3708 39.1246 47.475 39.1246 46.3698C39.1246 45.2647 38.2296 44.3688 37.1256 44.3688H21.1337V28.3608C21.1337 27.2556 20.2387 26.3598 19.1347 26.3598C18.0307 26.3598 17.1357 27.2556 17.1357 28.3608L17.1357 46.3698ZM36.9346 25.722L17.7212 44.9549L20.5482 47.7848L39.7616 28.5519L36.9346 25.722Z" fill="#01C246"/>
<path d="M89.2381 99.448C88.4575 100.229 88.4575 101.496 89.2381 102.278C90.0188 103.059 91.2845 103.059 92.0651 102.278L89.2381 99.448ZM111.864 81.6301C111.864 80.525 110.969 79.6291 109.865 79.6291H91.8742C90.7702 79.6291 89.8752 80.525 89.8752 81.6301C89.8752 82.7352 90.7702 83.6311 91.8742 83.6311H107.866V99.6392C107.866 100.744 108.761 101.64 109.865 101.64C110.969 101.64 111.864 100.744 111.864 99.6392V81.6301ZM92.0651 102.278L111.279 83.045L108.452 80.2152L89.2381 99.448L92.0651 102.278Z" fill="#01C246"/>
</svg>
